<?xml version="1.0" encoding="iso-8859-1"?>
<svg xmlns="http://www.w3.org/2000/svg" xmlns:xlink="http://www.w3.org/1999/xlink" version="1.1" viewBox="0 0 463 463" enable-background="new 0 0 463 463" width="512px" height="512px">
  <g>
    <path d="m295.5,280h-128c-4.142,0-7.5,3.357-7.5,7.5v35.865c-0.001,0.046-0.007,0.09-0.007,0.135s0.006,0.09 0.007,0.135v11.865c0,39.425 32.075,71.5 71.5,71.5s71.5-32.075 71.5-71.5v-48c0-4.143-3.358-7.5-7.5-7.5zm-7.5,55.5c0,31.154-25.346,56.5-56.5,56.5s-56.5-25.346-56.5-56.5v-5.107c5.273-0.907 8.825-2.675 11.846-4.185 3.724-1.862 6.415-3.208 12.644-3.208 6.229,0 8.92,1.346 12.646,3.208 4.27,2.135 9.583,4.792 19.354,4.792s15.084-2.657 19.354-4.792c3.725-1.862 6.417-3.208 12.646-3.208 6.23,0 8.922,1.346 12.647,3.208 3.024,1.512 6.581,3.281 11.865,4.188v5.104zm-.002-20.478c-1.817-0.564-3.369-1.337-5.157-2.23-4.27-2.135-9.584-4.792-19.355-4.792-9.771,0-15.084,2.657-19.354,4.792-3.725,1.862-6.417,3.208-12.646,3.208-6.229,0-8.92-1.346-12.646-3.208-4.27-2.135-9.583-4.792-19.354-4.792-9.77,0-15.083,2.657-19.353,4.792-1.781,0.891-3.328,1.661-5.137,2.224v-20.016h113v20.022z" fill="#FFFFFF"/>
    <path d="m415.5,144c-21.78,0-39.5,17.72-39.5,39.5v24c0,13.51-10.991,24.5-24.5,24.5-26.743,0-48.5-21.757-48.5-48.5v-64c0-5.827-3.235-10.908-8-13.555v-42.445c0-35.014-28.486-63.5-63.5-63.5s-63.5,28.486-63.5,63.5v42.445c-4.765,2.647-8,7.728-8,13.555v27.865c-0.001,0.046-0.007,0.09-0.007,0.135s0.006,0.09 0.007,0.135v35.865c0,26.743-21.757,48.5-48.5,48.5-13.509,0-24.5-10.99-24.5-24.5v-24c0-21.78-17.72-39.5-39.5-39.5-4.142,0-7.5,3.357-7.5,7.5s3.358,7.5 7.5,7.5c13.509,0 24.5,10.99 24.5,24.5v24c0,19.216 13.795,35.262 32,38.777v89.223c0,70.304 57.196,127.5 127.5,127.5s127.5-57.196 127.5-127.5v-89.223c18.205-3.515 32-19.561 32-38.777v-24c0-13.51 10.991-24.5 24.5-24.5 4.142,0 7.5-3.357 7.5-7.5s-3.358-7.5-7.5-7.5zm-232.5-80.5c0-26.743 21.757-48.5 48.5-48.5s48.5,21.757 48.5,48.5v40.5h-97v-40.5zm-8,56c0-0.275 0.224-0.5 0.5-0.5h112c0.276,0 0.5,0.225 0.5,0.5v19.522c-1.817-0.564-3.369-1.337-5.157-2.23-4.27-2.135-9.584-4.792-19.355-4.792-9.771,0-15.084,2.657-19.354,4.792-3.725,1.862-6.417,3.208-12.646,3.208-6.229,0-8.92-1.346-12.646-3.208-4.27-2.135-9.583-4.792-19.354-4.792-9.77,0-15.083,2.657-19.353,4.792-1.781,0.891-3.328,1.661-5.137,2.224v-19.516zm169.002,216c0,62.032-50.467,112.5-112.5,112.5s-112.5-50.468-112.5-112.5v-88.94c31.493-3.722 56-30.582 56-63.06v-29.107c5.273-0.907 8.825-2.675 11.846-4.185 3.724-1.862 6.415-3.208 12.644-3.208 6.229,0 8.92,1.346 12.646,3.208 4.27,2.135 9.583,4.792 19.354,4.792s15.084-2.657 19.354-4.792c3.725-1.862 6.417-3.208 12.646-3.208 6.23,0 8.922,1.346 12.647,3.208 3.024,1.512 6.581,3.281 11.865,4.188v29.104c0,32.478 24.507,59.338 56,63.06v88.94z" fill="#FFFFFF"/>
  </g>
</svg>
